<svg width="329" height="350" viewBox="0 0 329 350" fill="none" xmlns="http://www.w3.org/2000/svg"><path d="M6.96 285.245c.302.75 1.273-.63 1.473 0l-.569-7.382c.402-2.251 1.105-2.88 1.473-1.67.2-4.066-.602-10.987.401-11.012-.167-5.251-.535 1.67-.836 2.13v-.46l.067 5.567c-1.172.605.301-6.317-.837-7.212-2.142-.872-.87-7.842-1.205-11.738l-.167 4.09v34.971c0-1.984.636-5.397.234-7.284m2.878-161.038v1.331s-.067.17-.1.315l.1-1.646zm.1 132.092l-.2-2.226c.067.218-1.205.411.2.605v1.621zm318.325 74.566c-.201-4.115-.268-8.06-.1-11.738-.201-1.815-.502-7.212-1.105-5.567-.066 2.251-.836 2.566-1.305 2.421-.669-8.568 1.105-4.212.87-9.947 1.138-1.815.77 3.606 1.774 3.606l-.736-8.277c.368-4.671-.301-9.342.268-13.384-.134 1.815.87.581.435 3.606-.067-.459-.134-.145-.168-.605-.1 6.486.469 4.139.77 8.882-.268-5.3-.502-12.028-.301-16.554-.77 1.065-.335-3.92-.837-5.276l.067-.29c-.335 0-.569-3.001-.669-3.921l1.004-1.21c-.134-2.105-.502.605-.636-1.5-.234-3.001-.335-13.698.703-14.449-.067-3.63-.67-4.67-.536-8.422.268.291.368 1.21.502 1.331.201-7.962-.134-17.764.469-25.29-.268-6.147-.402-11.423-1.105-15.32.067 1.646-.167 6.462-.736 3.461-.401-1.646-.268-4.211-.435-6.752.536.605.502-6.486.87-1.356 1.138-1.282-.234-11.035.904-10.939-.335-1.21-.134-8.47-.737-11.181.502-.605.335 3.025.67 3.001l-.168-4.211h.335c.301-4.84-1.104-6.607-1.305-10.382l.134.605-.167-2.324.903 3.122c-.134-4.065-.937-6.098-1.138-10.624l.301-.436-.301-2.71c.067.46.168.629.268.314-.87-2.565-.535-8.422-1.272-10.842.134-1.791 1.205-3.316.469-5.736l1.071.46c.134 6.026-.77 2.251-.368 8.567 1.372-4.67 1.204-17.764 1.104-26.5-.201-1.864-.234-4.066-.268-6.341v-10.963c-4.417 0-8.533.024-11.88.121-1.707.048-3.28.121-3.849.193-.803.097-1.439.194-1.907.339l1.037-.46-16.431-.387c-13.955.194-28.312-.169-38.921.484l-2.911-.387c-11.01 1.331-37.448.556-44.71 2.13-6.225-.364 1.874-.606 2.51-.896-4.585-.121-12.282.92-16.666.194 0-.242 6.459-.218 3.547-.388-3.346-.459-4.785.46-8.534-.048 1.674.46-6.023 1.017-11.646 1.113.692 0 1.183.025 1.473.073.803.363-3.347.29-5.656.339 0 0 .201-.097.837-.121-28.914.605-61.978.895-92.398.435l5.588-.338c-4.35.266-12.08.072-14.557 0h.635c-8.132-.775-9.169.677-15.427-.17l1.238-.072c-9.772 0-15.595-.775-25.166-.363-7.53-.291-6.693-.654-11.88-.993-4.384 0-6.426.46-6.66.557l2.108.048c2.276.436-4.584.436-7.697.63-2.141 0-6.559.363-6.559.363s-.502 5.227-.602 8.18c.067-1.501.535 2.565.87-.146.134 2.106-.335 7.818-.937 5.567.2 2.565.602 7.381.77 9.487-.502.605-.201-1.791-.436-2.856l.302 7.382.535-2.106c-.402 5.421.904 8.858 1.305 13.238-.87-.605-.937-4.211-1.372-7.067-1.037 2.735.536 1.791.402 6.317-.168.605-.368.774-.636.46l.77 3.606c-.1 1.041-.302.46-.335 0 .937 6.171 1.238-.145 1.606 8.132.435-4.986-.602-4.236-.535-8.423.636-2.42 1.104 4.792 1.472 6.002-.2 4.066-1.506 4.526-.803 9.633-.401-3.606-.803-.146-.836-5.252-.436-2.856-.402 1.5-.87 2.105.167 1.356.903-.895.803 2.856l-.134-.145.937 6.147c-.469 5.736 1.037 12.924 0 16.869l.903-.92c.067 3.606.1 8.713.302 11.278-.536-.581-.57-3.001-.77-5.566-.168 6.486.401 12.197 1.138 16.554.635-3.171.602-3.631 1.037-6.632 1.272 4.211-.803 4.986-.167 10.407-.87.145-.77-1.646-1.607-.29.603 2.25.469 6.026 1.004 8.591-.87 1.355-1.606-1.041-1.673-6.607.77-4.211-.569-8.882.167-12.343l-.569 2.106c-.267-4.211-.1-6.777-.535-10.383l-1.874.146-2.878-1.791v1.96c0-1.355.703-5.397.67-6.607.133 6.026 2.543 6.462 3.312 9.318-.067 5.421-1.104 7.55-.368 11.156-.435.291-.602 3.316-1.004.896-.234-3.001.435-5.107-.167-5.421 0 3.17-.268 1.96-.167 6.776.803.92 1.572 4.502 2.208 7.962.402 3.607.402 8.277.168 11.157-.067-3.606-.837-7.236-1.406-6.316.803 2.105-.636 7.067.469 6.002-.067 4.211-.034 11.302-1.004 11.762-.368-3.993.234-7.842 0-11.23 0 .92-.268 1.84-.502 1.283l.1-4.986c-.468 3.752-1.774 3.026-1.673 7.842.067-.291-.703-.92-.703-.46v3.921l.1.145c.402 3.606-.2 10.552.435 17.159l.067-.581c-.167 5.276 1.707 5.711 1.908 11.423-.402-1.67-.736-.896-1.138-.605.435 2.856-.268 4.38-.502 7.236.536-3.315.937 2.251 1.238-.169.87-.17.904 5.711.804 8.737-1.138 1.79-.636-9.342-1.808-4.817-.1 3.001.536 3.752.77 1.646-.134 3.776-.268 9.487-.97 12.198.87 4.501.401 6.292 1.506 9.172-.034-2.42-.87-2.541-.402-5.566l.837 3.315c.067 4.357-.67 7.842-.77 10.843l-.368-3.171.134.145c-.369-1.21-.168-5.275-.77-4.816.77 2.856 0 5.131.569 8.882l-.134-.145c.67 6.607-1.272 11.447.335 15.634 0-1.21.602-3.606.903-2.855-.401 1.524-.268 5.566-.736 5.421l-.167-1.356c-.134 3.776-.201 6.027-.034 7.382.57 1.041 1.004 0 1.339 2.686-.168 5.664-.502 4.768-.87 3.074-.368-1.622-.703-4.018-.97.387l.468 8.882 3.882-.097 3.246.387c3.079 0 6.057.049 8.969.073 1.64 0 3.246-.024 4.852-.048 2.912-.073 5.756-.194 8.6-.315 5.723-.266 11.546-.581 18.306-.581.201.654-9.57.92-12.884.944 4.183.557 10.207-.218 15.83.194 5.22.096 9.136-.484 8.332-.823 6.426-.218 4.585.387 5.388.484 2.075-.702 10.207-.46 15.394-.605l.235.387 8.098-.484c-2.075-.048-.2-.387-.2-.629h2.074c-7.93-1.041-17.87.798-26.002-.436 2.476-.145-.837-.363 1.64-.508 2.074.048 2.51.097 2.71.242 1.238-.315 4.585-.605.201-.581.2-.823 8.935-.629 14.96-.92 4.785.533-4.987.799-7.464 1.186 2.276-.048 4.183-.411 7.497-.217l-.804.629c8.3-.339 2.276-.533 4.15-1.138 2.276-.798 7.496.025 9.772 0l-2.476.146c6.458.266 7.898-.388 13.721-.339l2.744.484c-7.296-.63-8.936.871-13.119.556 10.609.581-2.276 1.283-5.589 1.815 4.585-.121 8.735-.048 11.245.291 6.66-.823 13.955.29 20.38-.654 3.548.122-3.112.436.636.46 6.861.073 14.156-.048 21.418-.411 3.748 0 3.113.29 4.183.557 18.105.363 25.167-1.114 44.945-.751l-2.912.339c4.15.073 7.697.194 9.772-.266 5.221 1.065 17.703-.654 24.363.484 8.735.218 9.17-.726 16.03-.896 0 .242-2.075.702 1.473.823 22.455-.387 42.668-.46 67.433-.653-.201.097-1.439.169-2.075.194 6.091-.025 12.181-.049 18.205-.097l-.301-11.472c-.101-2.13-.201-4.235-.301-6.292" fill="#DE0024"/><path d="M6.96 178.245c.302.75 1.273-.63 1.473 0l-.569-7.382c.402-2.251 1.105-2.88 1.473-1.67.2-4.066-.602-10.987.401-11.012-.167-5.251-.535 1.67-.836 2.13v-.46l.067 5.567c-1.172.605.301-6.317-.837-7.212-2.142-.872-.87-7.842-1.205-11.738l-.167 4.09v34.971c0-1.984.636-5.397.234-7.284M9.872 17.207v1.331s-.067.17-.1.315l.1-1.646zm.1 132.092l-.2-2.226c.067.218-1.205.411.2.605v1.621zm318.325 74.566c-.201-4.115-.268-8.06-.1-11.738-.201-1.815-.502-7.212-1.105-5.567-.066 2.251-.836 2.566-1.305 2.421-.669-8.568 1.105-4.212.87-9.947 1.138-1.815.77 3.606 1.774 3.606l-.736-8.277c.368-4.671-.301-9.342.268-13.384-.134 1.815.87.581.435 3.606-.067-.459-.134-.145-.168-.605-.1 6.486.469 4.139.77 8.882-.268-5.3-.502-12.028-.301-16.554-.77 1.065-.335-3.92-.837-5.276l.067-.29c-.335 0-.569-3.001-.669-3.921l1.004-1.21c-.134-2.105-.502.605-.636-1.5-.234-3.001-.335-13.698.703-14.449-.067-3.63-.67-4.67-.536-8.422.268.291.368 1.21.502 1.331.201-7.962-.134-17.764.469-25.29-.268-6.147-.402-11.423-1.105-15.32.067 1.646-.167 6.462-.736 3.461-.401-1.646-.268-4.211-.435-6.752.536.605.502-6.486.87-1.356 1.138-1.282-.234-11.035.904-10.939-.335-1.21-.134-8.47-.737-11.18.502-.606.335 3.025.67 3l-.168-4.21h.335c.301-4.841-1.104-6.608-1.305-10.383l.134.605-.167-2.324.903 3.122c-.134-4.065-.937-6.098-1.138-10.624l.301-.436-.301-2.71c.067.46.168.629.268.314-.87-2.565-.535-8.422-1.272-10.842.134-1.79 1.205-3.316.469-5.736l1.071.46c.134 6.026-.77 2.25-.368 8.567 1.372-4.67 1.204-17.763 1.104-26.5-.201-1.864-.234-4.066-.268-6.341V.194c-4.417 0-8.533.024-11.88.12-1.707.049-3.28.122-3.849.194-.803.097-1.439.194-1.907.34l1.037-.46L294.765 0c-13.955.194-28.312-.17-38.921.484l-2.911-.387c-11.01 1.33-37.448.556-44.71 2.13-6.225-.364 1.874-.606 2.51-.896-4.585-.12-12.282.92-16.666.194 0-.242 6.459-.218 3.547-.388-3.346-.46-4.785.46-8.534-.048 1.674.46-6.023 1.017-11.646 1.113.692 0 1.183.025 1.473.073.803.363-3.347.29-5.656.339 0 0 .201-.097.837-.121-28.914.605-61.978.895-92.398.435l5.588-.338c-4.35.266-12.08.072-14.557 0h.635c-8.132-.775-9.169.677-15.427-.17l1.238-.072c-9.772 0-15.595-.775-25.166-.363-7.53-.29-6.693-.654-11.88-.993-4.384 0-6.426.46-6.66.557l2.108.048c2.276.436-4.584.436-7.697.63-2.141 0-6.559.363-6.559.363s-.502 5.227-.602 8.18c.067-1.5.535 2.565.87-.146.134 2.106-.335 7.818-.937 5.567.2 2.565.602 7.381.77 9.487-.502.605-.201-1.791-.436-2.856l.302 7.381.535-2.105c-.402 5.421.904 8.858 1.305 13.238-.87-.605-.937-4.21-1.372-7.067-1.037 2.735.536 1.791.402 6.317-.168.605-.368.775-.636.46l.77 3.606c-.1 1.04-.302.46-.335 0 .937 6.171 1.238-.145 1.606 8.132.435-4.986-.602-4.236-.535-8.423.636-2.42 1.104 4.792 1.472 6.003-.2 4.065-1.506 4.525-.803 9.632-.401-3.606-.803-.146-.836-5.252-.436-2.856-.402 1.5-.87 2.105.167 1.356.903-.895.803 2.856l-.134-.145.937 6.147c-.469 5.736 1.037 12.924 0 16.869l.903-.92c.067 3.606.1 8.713.302 11.278-.536-.58-.57-3.001-.77-5.566-.168 6.486.401 12.197 1.138 16.554.635-3.171.602-3.631 1.037-6.632 1.272 4.211-.803 4.986-.167 10.407-.87.145-.77-1.646-1.607-.29.603 2.25.469 6.026 1.004 8.591-.87 1.355-1.606-1.041-1.673-6.607.77-4.211-.569-8.882.167-12.343l-.569 2.106c-.267-4.211-.1-6.777-.535-10.383l-1.874.145-2.878-1.79v1.96c0-1.355.703-5.397.67-6.607.133 6.026 2.543 6.462 3.312 9.317-.067 5.422-1.104 7.551-.368 11.157-.435.291-.602 3.316-1.004.896-.234-3.001.435-5.107-.167-5.421 0 3.17-.268 1.96-.167 6.776.803.92 1.572 4.502 2.208 7.962.402 3.607.402 8.277.168 11.157-.067-3.606-.837-7.236-1.406-6.316.803 2.105-.636 7.067.469 6.002-.067 4.211-.034 11.302-1.004 11.762-.368-3.993.234-7.842 0-11.23 0 .92-.268 1.84-.502 1.283l.1-4.986c-.468 3.752-1.774 3.026-1.673 7.842.067-.291-.703-.92-.703-.46v3.921l.1.145c.402 3.606-.2 10.552.435 17.159l.067-.581c-.167 5.276 1.707 5.711 1.908 11.423-.402-1.67-.736-.896-1.138-.605.435 2.856-.268 4.38-.502 7.236.536-3.315.937 2.251 1.238-.169.87-.17.904 5.711.804 8.737-1.138 1.79-.636-9.342-1.808-4.817-.1 3.001.536 3.752.77 1.646-.134 3.776-.268 9.487-.97 12.198.87 4.501.401 6.292 1.506 9.172-.034-2.42-.87-2.541-.402-5.566l.837 3.315c.067 4.357-.67 7.842-.77 10.843l-.368-3.171.134.145c-.369-1.21-.168-5.275-.77-4.816.77 2.856 0 5.131.569 8.882l-.134-.145c.67 6.607-1.272 11.447.335 15.634 0-1.21.602-3.606.903-2.855-.401 1.524-.268 5.566-.736 5.421l-.167-1.356c-.134 3.776-.201 6.027-.034 7.382.57 1.041 1.004 0 1.339 2.686-.168 5.664-.502 4.768-.87 3.074-.368-1.622-.703-4.018-.97.387l.468 8.882 3.882-.097 3.246.387c3.079 0 6.057.049 8.969.073 1.64 0 3.246-.024 4.852-.048 2.912-.073 5.756-.194 8.6-.315 5.723-.266 11.546-.581 18.306-.581.201.654-9.57.92-12.884.944 4.183.557 10.207-.218 15.83.194 5.22.096 9.136-.484 8.332-.823 6.426-.218 4.585.387 5.388.484 2.075-.702 10.207-.46 15.394-.605l.235.387 8.098-.484c-2.075-.048-.2-.387-.2-.629h2.074c-7.93-1.041-17.87.798-26.002-.436 2.476-.145-.837-.363 1.64-.508 2.074.048 2.51.097 2.71.242 1.238-.315 4.585-.605.201-.581.2-.823 8.935-.629 14.96-.92 4.785.533-4.987.799-7.464 1.186 2.276-.048 4.183-.411 7.497-.217l-.804.629c8.3-.339 2.276-.533 4.15-1.138 2.276-.798 7.496.025 9.772 0l-2.476.146c6.458.266 7.898-.388 13.721-.339l2.744.484c-7.296-.63-8.936.871-13.119.556 10.609.581-2.276 1.283-5.589 1.815 4.585-.121 8.735-.048 11.245.291 6.66-.823 13.955.29 20.38-.654 3.548.122-3.112.436.636.46 6.861.073 14.156-.048 21.418-.411 3.748 0 3.113.29 4.183.557 18.105.363 25.167-1.114 44.945-.751l-2.912.339c4.15.073 7.697.194 9.772-.266 5.221 1.065 17.703-.654 24.363.484 8.735.218 9.17-.726 16.03-.896 0 .242-2.075.702 1.473.823 22.455-.387 42.668-.46 67.433-.653-.201.097-1.439.169-2.075.194 6.091-.025 12.181-.049 18.205-.097l-.301-11.472c-.101-2.13-.201-4.235-.301-6.292" fill="#DE0024"/></svg>